<?xml version="1.0" encoding="UTF-8"?>
<svg version="1.1" xmlns="http://www.w3.org/2000/svg" width="314" height="81">
<path d="M0 0 C3.96 0 7.92 0 12 0 C11.38540185 6.08220659 10.13877005 11.72807461 8.49609375 17.609375 C8.2533522 18.49860657 8.01061066 19.38783813 7.76051331 20.30401611 C6.99136737 23.12079864 6.2152624 25.93558537 5.4375 28.75 C4.40955186 32.47239429 3.38839669 36.1965594 2.37109375 39.921875 C2.13361923 40.77295837 1.89614471 41.62404175 1.651474 42.50091553 C1.43447342 43.2956427 1.21747284 44.09036987 0.99389648 44.90917969 C0.80149887 45.6045282 0.60910126 46.29987671 0.41087341 47.01629639 C-0.13521303 49.31517613 -0.13521303 49.31517613 0 53 C3.65316671 51.75023244 4.78065836 51.32901247 7 48 C7.30278952 46.13279795 7.5459092 44.25555097 7.75 42.375 C8.81533171 35.50028133 11.3068482 30.20369795 16.62109375 25.59375 C21.33971339 22.29895325 25.32608018 21.61532747 31 22 C34.4375 23.5 34.4375 23.5 37 25 C37 24.01 37 23.02 37 22 C40.96 22 44.92 22 49 22 C48.11390015 26.72586584 47.17739474 31.40359499 45.94140625 36.05078125 C45.75610352 36.75396484 45.57080078 37.45714844 45.37988281 38.18164062 C45.0068648 39.58254476 44.62494632 40.98111464 44.23339844 42.37695312 C43.20234818 46.26778101 42.82184433 49.12034089 44 53 C46.53043305 52.03201729 47.75710179 51.43878386 49.08984375 49.03125 C49.50943359 47.77828125 49.50943359 47.77828125 49.9375 46.5 C50.42283203 45.05173828 50.42283203 45.05173828 50.91796875 43.57421875 C53.08353253 36.42082216 55.06248239 29.21804715 57 22 C60.96 22 64.92 22 69 22 C69.33 22.66 69.66 23.32 70 24 C70.639375 23.649375 71.27875 23.29875 71.9375 22.9375 C76.05401805 21.67734141 79.84827161 21.84155893 84 23 C86.15581416 24.56873977 86.88927763 25.4279344 87.3984375 28.05859375 C87.33869986 34.12196451 86.30360723 39.42932527 84.55859375 45.23828125 C83.95997301 48.19789568 84.20591551 50.1128981 85 53 C87.01722554 52.51190805 87.01722554 52.51190805 89 51 C89.85266843 48.55153891 90.46739637 46.32809296 91 43.8125 C92.96267024 35.68226104 95.24576476 29.55783185 101.9375 24.1640625 C105.70369189 22.03844662 109.73334533 21.67074048 114 22 C115.65 22.66 117.3 23.32 119 24 C121.31 16.08 123.62 8.16 126 0 C129.96 0 133.92 0 138 0 C136.77476117 4.92592885 135.54788539 9.85144623 134.31958008 14.77661133 C133.90312919 16.44740134 133.4871031 18.11829729 133.0715332 19.78930664 C132.46941729 22.21008795 131.86588339 24.6305105 131.26171875 27.05078125 C130.96864334 28.22762985 130.96864334 28.22762985 130.66964722 29.42825317 C129.38122248 34.57127812 128.00254328 39.6796062 126.49145508 44.76245117 C125.94902295 47.23209372 125.9139385 49.47915019 126 52 C128.475 51.505 128.475 51.505 131 51 C131.36351562 49.37191406 131.36351562 49.37191406 131.734375 47.7109375 C132.07227534 46.26547493 132.41085313 44.82017061 132.75 43.375 C132.90726563 42.66214844 133.06453125 41.94929688 133.2265625 41.21484375 C134.93894836 34.03599534 138.42817081 28.89233782 144 24 C148.01508134 21.78113926 151.45907215 21.6813384 156 22 C159.4375 23 159.4375 23 162 24 C162.33 23.34 162.66 22.68 163 22 C166.96 22 170.92 22 175 22 C174.57847656 23.65128906 174.15695312 25.30257813 173.72265625 27.00390625 C173.16908177 29.1900563 172.61570685 31.37625689 172.0625 33.5625 C171.78470703 34.64853516 171.50691406 35.73457031 171.22070312 36.85351562 C169.86518733 42.22658426 168.62439957 47.49105699 168 53 C172.02063866 51.69600908 173.54184531 50.35202912 176 47 C176.99 47 177.98 47 179 47 C178.4938686 51.42864971 177.15110054 53.84889946 174 57 C169.61652346 59.35408926 165.97399598 60.84663761 161 60 C158.73870943 58.50972155 156.97648782 56.88236935 155 55 C153.8553125 55.9590625 153.8553125 55.9590625 152.6875 56.9375 C148.49732582 60.15321506 145.19439869 60.44779299 140 60 C137.0625 58.125 137.0625 58.125 135 56 C135 55.34 135 54.68 135 54 C134.27296875 54.52400391 134.27296875 54.52400391 133.53125 55.05859375 C128.5910398 58.41223644 125.01893128 60 119 60 C116.00204165 58.66048669 114.47220125 57.9444025 113 55 C111.8553125 55.9590625 111.8553125 55.9590625 110.6875 56.9375 C106.49732582 60.15321506 103.19439869 60.44779299 98 60 C95.0625 58.125 95.0625 58.125 93 56 C93 55.34 93 54.68 93 54 C92.27296875 54.52400391 92.27296875 54.52400391 91.53125 55.05859375 C86.5910398 58.41223644 83.01893128 60 77 60 C74.0625 59.125 74.0625 59.125 72 57 C69.91606067 50.96822531 71.41131057 45.56178994 73.23046875 39.6640625 C74.25709162 36.10996707 74.65313029 32.67681895 75 29 C72.62766389 29.03780298 72.62766389 29.03780298 70 30 C65.54030207 35.23683341 64.37901303 41.23314527 62.8125 47.8125 C62.30097382 49.90303006 61.78679822 51.99291425 61.26953125 54.08203125 C61.04885986 55.00218018 60.82818848 55.9223291 60.60083008 56.87036133 C60 59 60 59 59 60 C57.14712498 60.07226502 55.29166122 60.0838122 53.4375 60.0625 C52.42558594 60.05347656 51.41367188 60.04445312 50.37109375 60.03515625 C49.58863281 60.02355469 48.80617187 60.01195312 48 60 C48 59.01 48 58.02 48 57 C46.4840625 57.7734375 46.4840625 57.7734375 44.9375 58.5625 C40.99935888 60.24799245 38.18032589 60.12547235 34 59 C32.0625 57.5625 32.0625 57.5625 31 56 C31 55.34 31 54.68 31 54 C30.29423828 54.52400391 30.29423828 54.52400391 29.57421875 55.05859375 C28.95160156 55.51363281 28.32898438 55.96867187 27.6875 56.4375 C27.07261719 56.88996094 26.45773438 57.34242187 25.82421875 57.80859375 C21.97626192 60.32171331 18.48009444 60.45560282 14 60 C11.6675777 58.54350922 9.98748152 56.93900636 8 55 C7.50371094 55.3609375 7.00742188 55.721875 6.49609375 56.09375 C1.90271859 59.23153948 -1.2608886 60.97456609 -7 60 C-9.9375 58.125 -9.9375 58.125 -12 56 C-12 55.34 -12 54.68 -12 54 C-12.78375 54.495 -13.5675 54.99 -14.375 55.5 C-18.49653185 57.20546145 -21.24806181 57.06537083 -25.6171875 56.90234375 C-28.22631404 56.84609167 -28.22631404 56.84609167 -31.125 58.5625 C-35.26294884 60.63147442 -37.5158475 60.02914975 -42 59 C-42.99 58.01 -43.98 57.02 -45 56 C-47.31 64.25 -49.62 72.5 -52 81 C-55.96 81 -59.92 81 -64 81 C-63.37768893 78.14522349 -62.75223464 75.29119519 -62.125 72.4375 C-61.86396484 71.23770508 -61.86396484 71.23770508 -61.59765625 70.01367188 C-60.55556397 65.28566059 -59.38268277 60.64008408 -58 56 C-59.19625 56.474375 -60.3925 56.94875 -61.625 57.4375 C-68.91556936 60.14433136 -76.97322842 61.56596673 -84.375 58.6875 C-89.61650485 55.31796117 -89.61650485 55.31796117 -90.6171875 51.87890625 C-91.31161043 45.63962141 -91.31161043 45.63962141 -89.8125 42.5625 C-88 41 -88 41 -86.02050781 40.14697266 C-83.55216404 38.74577896 -83.00800405 37.65120904 -81.859375 35.0859375 C-81.51132813 34.32539062 -81.16328125 33.56484375 -80.8046875 32.78125 C-80.28261719 31.59015625 -80.28261719 31.59015625 -79.75 30.375 C-79.38648438 29.57320312 -79.02296875 28.77140625 -78.6484375 27.9453125 C-77.75423519 25.96865477 -76.87559681 23.98496946 -76 22 C-72.04 22 -68.08 22 -64 22 C-64.33 23.65 -64.66 25.3 -65 27 C-65.47754833 31.7754833 -64.69328426 35.06014821 -62.9375 39.4375 C-60.92993991 44.53740705 -60.79754432 47.6891541 -62 53 C-57.26267367 49.9025174 -55.7984058 46.72603348 -54.375 41.4375 C-54.17044189 40.73238281 -53.96588379 40.02726562 -53.75512695 39.30078125 C-53.15191118 37.20512439 -52.5732703 35.1040186 -52 33 C-51.67644531 31.84628906 -51.35289063 30.69257813 -51.01953125 29.50390625 C-50.3280939 27.00759019 -49.66092733 24.50456674 -49 22 C-45.04 22 -41.08 22 -37 22 C-37 22.66 -37 23.32 -37 24 C-36.319375 23.67 -35.63875 23.34 -34.9375 23 C-30.44722725 21.47139651 -26.74973875 21.40349815 -22.25 22.9375 C-18.78264806 26.11590595 -17.64871897 29.37787735 -17 34 C-17.28428211 40.92937638 -18.52854722 46.63425666 -23 52 C-18.5952046 52.43626658 -18.5952046 52.43626658 -14.89984131 50.28814697 C-12.87205023 47.84589878 -12.15429727 46.18632964 -11.35253906 43.13964844 C-10.96258759 41.69860748 -10.96258759 41.69860748 -10.5647583 40.22845459 C-10.30104431 39.19915833 -10.03733032 38.16986206 -9.765625 37.109375 C-9.48273621 36.04962463 -9.19984741 34.98987427 -8.90838623 33.89801025 C-8.00942746 30.5185854 -7.12951691 27.13453095 -6.25 23.75 C-5.64317658 21.45539837 -5.03511809 19.16112297 -4.42578125 16.8671875 C-2.93617275 11.24847424 -1.46362578 5.62553488 0 0 Z M-36.5703125 27.4375 C-39.90139926 30.95067189 -40.72309144 34.37759769 -41.875 39 C-42.09929687 39.80695312 -42.32359375 40.61390625 -42.5546875 41.4453125 C-43.96491987 46.71422655 -43.96491987 46.71422655 -43 52 C-42.67 52.33 -42.34 52.66 -42 53 C-37.22719303 52.78671907 -37.22719303 52.78671907 -33.1875 50.5 C-31.75441295 47.48297463 -31.10790713 44.57594745 -30.48046875 41.3046875 C-30 39 -30 39 -28.75 35.3125 C-27.88045548 31.47201169 -28.4381059 29.55764768 -30 26 C-33.90897862 25.67458759 -33.90897862 25.67458759 -36.5703125 27.4375 Z M25.3125 28.875 C20.67032895 35.14820412 18.24517813 40.98998769 18.52734375 48.890625 C18.84505827 51.30028306 18.84505827 51.30028306 21.5 53.125 C22.325 53.41375 23.15 53.7025 24 54 C30.43245104 48.46094494 33.11270898 41.17826108 35 33 C35.16928543 30.20755955 35.16928543 30.20755955 35 28 C29.88517366 26.65611104 29.88517366 26.65611104 25.3125 28.875 Z M107.75 30.6875 C104.19627406 35.97633495 102.45877841 40.57710227 102 47 C102.97613479 50.30563979 102.97613479 50.30563979 105 53 C107.37124598 53.58488562 107.37124598 53.58488562 110 53 C113.32938978 48.79648472 115.01861716 44.57694698 116.3125 39.4375 C116.49361328 38.79103516 116.67472656 38.14457031 116.86132812 37.47851562 C117.86200784 33.65101304 118.13259584 30.80698345 117 27 C112.26834435 26.09873226 110.54836501 27.01378435 107.75 30.6875 Z M150.375 29.3125 C146.39108292 34.78391859 143.47685133 41.72419947 144 48.5625 C144.63618191 52.05718459 144.63618191 52.05718459 147.0625 53.5 C147.701875 53.665 148.34125 53.83 149 54 C157.15066032 48.4427316 158.9294252 40.31793488 160.8984375 31.03125 C160.93195313 30.3609375 160.96546875 29.690625 161 29 C159.12747383 26.74585812 159.12747383 26.74585812 156.1875 26.5 C152.82749204 26.73488793 152.82749204 26.73488793 150.375 29.3125 Z M-78 35 C-81.04699749 39.0575207 -81.38161233 42.11701399 -81.3125 47.125 C-81.30863281 48.34445313 -81.30476563 49.56390625 -81.30078125 50.8203125 C-81.23868285 54.1553428 -81.23868285 54.1553428 -79 57 C-75.06924356 56.42547254 -75.06924356 56.42547254 -72 54 C-71.56268503 47.23619521 -74.28915489 41.03951072 -77 35 C-77.33 35 -77.66 35 -78 35 Z " fill="#000000" transform="translate(135,0)"/>
<path d="M0 0 C1.14831299 0.00424484 1.14831299 0.00424484 2.31982422 0.00857544 C4.73421724 0.01965602 7.14822154 0.04473649 9.5625 0.0703125 C11.21223418 0.08035802 12.86197424 0.0894811 14.51171875 0.09765625 C18.52879268 0.11955538 22.54558073 0.15399925 26.5625 0.1953125 C26.2325 1.5153125 25.9025 2.8353125 25.5625 4.1953125 C18.6325 4.1953125 11.7025 4.1953125 4.5625 4.1953125 C4.2325 6.8353125 3.9025 9.4753125 3.5625 12.1953125 C3.08579102 14.14413834 2.56968062 16.08410837 2 18.0078125 C1.13212189 20.95195402 0.5625 23.11246877 0.5625 26.1953125 C1.738125 25.23625 1.738125 25.23625 2.9375 24.2578125 C7.02947706 21.04268767 9.3535725 20.92115842 14.5625 21.1953125 C15.5525 21.8553125 16.5425 22.5153125 17.5625 23.1953125 C17.875 25.6953125 17.875 25.6953125 17.5625 28.1953125 C14.90698473 30.85082777 13.50760012 30.42049048 9.8125 30.5078125 C4.58183166 30.84630865 4.58183166 30.84630865 0 33.1328125 C-4.58471128 38.89309077 -6.1962867 45.91096022 -5.4375 53.1953125 C-2.50302643 56.12978607 0.74509456 55.65689673 4.6875 55.8203125 C5.44160156 55.85898437 6.19570313 55.89765625 6.97265625 55.9375 C8.83553184 56.03182281 10.69898255 56.11465912 12.5625 56.1953125 C12.5625 57.5153125 12.5625 58.8353125 12.5625 60.1953125 C9.20850151 60.2832079 5.8548036 60.33600129 2.5 60.3828125 C1.08557617 60.42051758 1.08557617 60.42051758 -0.35742188 60.45898438 C-6.20203863 60.52007793 -10.28565221 60.02096076 -15.4375 57.1953125 C-17.94985591 54.68295659 -17.79105803 53.79938934 -17.875 50.3046875 C-17.72003242 41.04537437 -14.90682763 32.30174664 -12.4375 23.4453125 C-11.95434755 21.66964619 -11.47256567 19.89360636 -10.9921875 18.1171875 C-9.82304315 13.80542833 -8.63548658 9.49914302 -7.4375 5.1953125 C-12.63289275 6.65114705 -12.63289275 6.65114705 -16.4375 10.1953125 C-17.34638062 12.65579706 -17.34638062 12.65579706 -17.4375 15.1953125 C-16.4475 16.6803125 -16.4475 16.6803125 -15.4375 18.1953125 C-15.4375 19.1853125 -15.4375 20.1753125 -15.4375 21.1953125 C-18.45074195 22.70193347 -21.12036377 22.37301623 -24.4375 22.1953125 C-26.4375 20.1953125 -26.4375 20.1953125 -26.8125 16.4453125 C-26.68460349 12.03288283 -25.35373334 9.57200374 -22.4375 6.1953125 C-15.71709663 0.69680065 -8.35337782 -0.11905189 0 0 Z " fill="#000000" transform="translate(26.4375,-0.1953125)"/>
</svg>
